<?xml version="1.0" encoding="UTF-8"?>
<svg width="24" height="24" viewBox="0 0 24 24" fill="none" xmlns="http://www.w3.org/2000/svg">
  <circle cx="12" cy="12" r="12" fill="#2D374B"/>
  <path d="M15.6602 15.9957L12.1415 20.5781C12.0733 20.6712 11.9743 20.7197 11.8695 20.7197C11.7647 20.7197 11.6657 20.6712 11.5975 20.5781L8.07881 15.9957C8.01061 15.9026 7.98677 15.7852 8.01061 15.6733C8.03445 15.5615 8.10265 15.4661 8.19669 15.4115L11.7154 13.4863C11.8202 13.4317 11.9192 13.4317 12.024 13.4863L15.5427 15.4115C15.6367 15.4661 15.7049 15.5615 15.7288 15.6733C15.7526 15.7852 15.7288 15.9026 15.6602 15.9957Z" fill="#28A0F0"/>
  <path d="M15.6602 9.48113L12.1415 14.0636C12.0733 14.1567 11.9743 14.2052 11.8695 14.2052C11.7647 14.2052 11.6657 14.1567 11.5975 14.0636L8.07881 9.48113C8.01061 9.38806 7.98677 9.27062 8.01061 9.15876C8.03445 9.04691 8.10265 8.95151 8.19669 8.89691L11.7154 6.97172C11.8202 6.91712 11.9192 6.91712 12.024 6.97172L15.5427 8.89691C15.6367 8.95151 15.7049 9.04691 15.7288 9.15876C15.7526 9.27062 15.7288 9.38806 15.6602 9.48113Z" fill="#28A0F0"/>
</svg> 