<?xml version="1.0" encoding="UTF-8"?>
<svg width="24" height="24" viewBox="0 0 24 24" fill="none" xmlns="http://www.w3.org/2000/svg">
  <circle cx="12" cy="12" r="12" fill="#0052FF"/>
  <path fill-rule="evenodd" clip-rule="evenodd" d="M12 19C15.866 19 19 15.866 19 12C19 8.13401 15.866 5 12 5C8.13401 5 5 8.13401 5 12C5 15.866 8.13401 19 12 19ZM12.9657 9.13428C12.9657 8.5749 12.5251 8.13428 11.9657 8.13428H9.96569C9.40626 8.13428 8.96569 8.5749 8.96569 9.13428V14.8657C8.96569 15.4251 9.40626 15.8657 9.96569 15.8657H11.9657C12.5251 15.8657 12.9657 15.4251 12.9657 14.8657V9.13428ZM15.0343 9.13428C14.4749 9.13428 14.0343 9.5749 14.0343 10.1343V14.8657C14.0343 15.4251 14.4749 15.8657 15.0343 15.8657C15.5937 15.8657 16.0343 15.4251 16.0343 14.8657V10.1343C16.0343 9.5749 15.5937 9.13428 15.0343 9.13428Z" fill="white"/>
</svg> 